# xmcd
#
# Track frame offsets: 
#        150
#        10646
#        20979
#        32192
#        41943
#        52293
#        61904
#        71776
#        82123
#        93529
#        103482
#        114154
#        127360
#        138814
#        153216
#        163080
#        174511
#        185090
#        196953
#        210804
#        223311
#        233824
#        242948
#        252441
#        263158
#        274211
#        286773
#        298347
#        308602
#        320055
#
# Disc length: 4414 seconds
#
# Revision: 0
# Processed by: cddbd v1.5.2PL0 Copyright (c) Steve Scherf et al.
# Submitted via: ExactAudioCopy v1.0b3
#
DISCID=da113c1e
DTITLE=Various Artist - Soul City Los Angeles CD1
DYEAR=2014
DGENRE=R&B
TTITLE0=Simms Twins - Soothe Me
TTITLE1=Simms Twins - Right to Love
TTITLE2=Simms Twins - The Smile
TTITLE3=Simms Twins - You're Pickin' in the Right Cotton Patch
TTITLE4=The Olympics - Stay Where You Are
TTITLE5=The Olympics - Babt It's Hot
TTITLE6=Earl Nelson - Come on
TTITLE7=Earl Nelson - No Time to Cry
TTITLE8=The Valentinos - Lookin' for a Love
TTITLE9=The Valentinos - Somewhere There's a Love
TTITLE10=Johhnie Morisette - Damper
TTITLE11=Johhnie Morisette - Meet me at the Twistin' Place
TTITLE12=Johhnie Morisette - Anytime, Anyplace, Anywhere
TTITLE13=Jimmy Norman - Here Comes the Night (Part 1)
TTITLE14=Willie "Moon Man" Echols - Here Comes the Night (Part 2)
TTITLE15=Wally Cox - The Heebee Jeebees
TTITLE16=Wally Vox - I Can't Help It
TTITLE17=The Rivingtons - Papa-Oom-Mow-Mow
TTITLE18=The Rivingtons - Deep Water
TTITLE19=The Rivingtons - My Reward
TTITLE20=The Rivingtons - Waiting
TTITLE21=Beamon Toung - The Love I Just Lost
TTITLE22=Beamon Toung - Some Day
TTITLE23=Donald Woods - That Much of Their Love
TTITLE24=Donald Woods - Memories of an Angel
TTITLE25=Zeke Strong and His Queen Tones - All By Myself
TTITLE26=Zeke Strong and His Queen Tones - Your Heart Must Be Made of St
TTITLE26=one
TTITLE27=The Valiants - This is the Nite
TTITLE28=The Valiants - Love Game
TTITLE29=The Valiants - Frieda Frieda
EXTD=
EXTT0=
EXTT1=
EXTT2=
EXTT3=
EXTT4=
EXTT5=
EXTT6=
EXTT7=
EXTT8=
EXTT9=
EXTT10=
EXTT11=
EXTT12=
EXTT13=
EXTT14=
EXTT15=
EXTT16=
EXTT17=
EXTT18=
EXTT19=
EXTT20=
EXTT21=
EXTT22=
EXTT23=
EXTT24=
EXTT25=
EXTT26=
EXTT27=
EXTT28=
EXTT29=
PLAYORDER=
